<?xml version="1.0" standalone="no"?>
<!DOCTYPE svg PUBLIC "-//W3C//DTD SVG 20010904//EN"
 "http://www.w3.org/TR/2001/REC-SVG-20010904/DTD/svg10.dtd">
<svg version="1.0" xmlns="http://www.w3.org/2000/svg"
 width="2626.000000pt" height="2071.000000pt" viewBox="0 0 2626.000000 2071.000000"
 preserveAspectRatio="xMidYMid meet">

<g transform="translate(0.000000,2071.000000) scale(0.100000,-0.100000)"
fill="#1a54b7" stroke="none">
<path d="M6410 20663 c-818 -27 -1582 -357 -2161 -933 -529 -526 -830 -1144
-936 -1920 -16 -116 -17 -572 -21 -6680 -2 -4629 0 -6611 8 -6745 27 -477 126
-857 332 -1273 437 -884 1269 -1527 2228 -1722 80 -16 204 -37 275 -47 124
-17 459 -18 6825 -18 5477 0 6715 2 6805 13 632 76 1177 299 1665 682 156 123
436 409 557 570 353 470 557 969 640 1570 16 117 17 543 21 6720 2 4641 0
6644 -8 6760 -45 686 -283 1299 -713 1835 -107 133 -346 370 -482 479 -490
392 -1028 613 -1695 698 -73 9 -1607 12 -6675 13 -3619 1 -6618 0 -6665 -2z
m2351 -6104 c771 -60 1380 -357 1704 -829 57 -84 149 -281 194 -415 138 -417
134 -878 -10 -1133 -46 -80 -144 -174 -221 -210 -173 -82 -401 -64 -589 48
-128 76 -263 224 -314 345 -9 22 -34 94 -56 160 -104 316 -215 458 -444 570
-137 67 -246 96 -391 102 -406 19 -819 -205 -1068 -579 -244 -368 -366 -826
-366 -1378 0 -465 73 -830 245 -1236 128 -300 212 -408 421 -539 154 -97 332
-156 531 -176 215 -22 463 35 667 153 85 49 217 179 264 260 62 105 106 264
118 422 l7 84 -139 6 c-290 12 -419 34 -572 98 -154 64 -256 160 -325 304 -32
68 -32 71 -31 214 0 176 14 228 83 326 85 122 132 150 359 211 l137 38 650 -1
c358 -1 1731 -5 3052 -9 l2401 -7 6 53 c3 30 7 126 10 214 30 931 500 1922
1138 2401 211 158 402 255 668 342 860 279 1598 185 2202 -280 112 -87 309
-281 402 -398 37 -47 105 -141 150 -210 369 -557 592 -1275 646 -2078 62 -931
-173 -1874 -613 -2457 -78 -103 -269 -294 -372 -372 -368 -278 -777 -434
-1270 -484 -149 -15 -489 -7 -635 16 -768 117 -1412 533 -1795 1159 -125 204
-219 409 -306 666 l-59 175 -73 -3 c-39 -2 -796 -4 -1682 -5 -885 -1 -1853 -3
-2151 -4 l-541 -3 -6 -147 c-23 -521 -135 -920 -348 -1238 -120 -179 -319
-370 -514 -493 -158 -99 -417 -192 -685 -246 -294 -59 -418 -71 -745 -70 -303
0 -426 10 -644 54 -1236 248 -1963 1276 -2061 2915 -39 658 33 1256 220 1815
219 657 553 1145 995 1453 418 290 1111 447 1756 396z"/>
<path d="M17595 13216 c-159 -31 -303 -80 -440 -149 -355 -178 -583 -611 -672
-1272 -25 -190 -25 -768 0 -945 70 -492 212 -851 432 -1088 232 -251 597 -390
923 -354 386 43 631 230 835 637 114 229 187 502 222 830 17 162 20 519 5 680
-56 606 -236 1113 -496 1394 -116 125 -216 192 -366 242 -84 29 -107 32 -233
35 -89 2 -165 -2 -210 -10z"/>
</g>
</svg>
